<svg ng-if="tab.name === 'liqpay'" version="1.1" id="Layer_1" xmlns="http://www.w3.org/2000/svg" xmlns:xlink="http://www.w3.org/1999/xlink" x="0px" y="0px"
	 viewBox="0 0 48.2 63.8" enable-background="new 0 0 48.2 63.8" xml:space="preserve">
<g id="g10" transform="matrix(1.25,0,0,-1.25,-74.19125,149.0417)">
	<g id="g4163" transform="matrix(0.6384875,0,0,0.6384875,24.348951,24.07854)">
		<g id="g12" transform="translate(143.448,67.609)">
			<path id="path14" fill="#2C3B92" d="M-66.4,54.1l2.6,15.8h4.1l-2.6-15.8H-66.4"/>
		</g>
		<g id="g16" transform="translate(224.353,133.66)">
			<path id="path18" fill="#2C3B92" d="M-128.4,3.4c-0.8,0.3-2.1,0.7-3.7,0.7c-4,0-6.9-2.1-6.9-5.2c0-2.3,2-3.5,3.6-4.3
				c1.6-0.8,2.1-1.3,2.1-2c0-1.1-1.3-1.5-2.4-1.5c-1.6,0-2.5,0.2-3.8,0.8l-0.5,0.3l-0.6-3.5c1-0.4,2.7-0.8,4.6-0.8
				c4.3,0,7.1,2.1,7.1,5.4c0,1.8-1.1,3.2-3.4,4.3c-1.4,0.7-2.3,1.2-2.3,2c0,0.7,0.7,1.4,2.3,1.4c1.3,0,2.3-0.3,3.1-0.6l0.4-0.2
				L-128.4,3.4"/>
		</g>
		<g id="g20" transform="translate(247.634,91.616)">
			<path id="path22" fill="#2C3B92" d="M-146.2,35.7c0.3,0.9,1.6,4.4,1.6,4.4c0,0,0.3,0.9,0.5,1.5l0.3-1.4c0,0,0.8-3.8,0.9-4.6
				C-143.4,35.7-145.4,35.7-146.2,35.7z M-141.2,45.9h-3.2c-1,0-1.7-0.3-2.1-1.3l-6.1-14.5h4.3c0,0,0.7,2,0.9,2.4c0.5,0,4.6,0,5.2,0
				c0.1-0.6,0.5-2.4,0.5-2.4h3.8L-141.2,45.9"/>
		</g>
		<g id="g24" transform="translate(128.78,135.265)">
			<path id="path26" fill="#2C3B92" d="M-55.1,2.2l-4-10.8l-0.4,2.2c-0.7,2.5-3.1,5.3-5.7,6.6l3.7-13.8l4.3,0l6.4,15.8H-55.1"/>
		</g>
		<g id="g28" transform="translate(95.781,135.311)">
			<path id="path30" fill="#F6961E" d="M-29.8,2.2h-6.6l-0.1-0.3c5.1-1.3,8.5-4.5,9.9-8.3L-28,0.8C-28.2,1.8-28.9,2.1-29.8,2.2"/>
		</g>
		<g id="g32" transform="translate(288.329,72.034)">
			<path id="path34" fill="#2C3B92" d="M-177.4,50.7h0.2c0.1,0,0.2,0.1,0.2,0.1c0,0.1-0.1,0.1-0.2,0.1h-0.2V50.7z M-177.6,51.1h0.4
				c0.1,0,0.3,0,0.3-0.3c0-0.1,0-0.1-0.2-0.2v0c0.1,0,0.1-0.1,0.1-0.2c0-0.1,0-0.2,0-0.2h-0.2c0,0,0,0.1,0,0.2c0,0.1,0,0.2-0.2,0.2
				h-0.1v-0.4h-0.2C-177.6,50.2-177.6,51.1-177.6,51.1z M-177.2,49.9c0.4,0,0.7,0.3,0.7,0.8c0,0.4-0.3,0.8-0.7,0.8
				c-0.4,0-0.7-0.3-0.7-0.8C-178,50.2-177.6,49.9-177.2,49.9z M-177.2,51.5c0.5,0,0.9-0.4,0.9-0.9c0-0.5-0.4-0.9-0.9-0.9
				c-0.5,0-0.9,0.4-0.9,0.9C-178.1,51.1-177.7,51.5-177.2,51.5"/>
		</g>
	</g>
</g>
<g>
	<path fill="#58595B" d="M48.2,30.7H0V0h48.2V30.7z M0.2,30.4h47.7V0.2H0.2V30.4z"/>
</g>
<g>
	<rect x="0" y="33.2" fill="#22205F" width="48.2" height="30.6"/>
	<g id="layer1">
		<g id="g10305">
			<path id="path2268" fill="#F8991D" d="M46.9,48.5c0,7.5-6.1,13.6-13.6,13.6c-7.5,0-13.6-6.1-13.6-13.6c0,0,0,0,0,0
				c0-7.5,6.1-13.6,13.6-13.6C40.8,34.9,46.9,41,46.9,48.5C46.9,48.5,46.9,48.5,46.9,48.5z"/>
			<path id="path1350" fill="#CB2026" d="M14.9,34.9C7.4,35,1.3,41,1.3,48.5c0,7.5,6.1,13.6,13.6,13.6c3.5,0,6.8-1.3,9.2-3.6
				c0,0,0,0,0,0h0c0.5-0.5,1-0.9,1.4-1.5h-2.8c-0.4-0.5-0.7-0.9-1-1.4h4.8c0.3-0.5,0.6-1,0.8-1.5h-6.4c-0.2-0.5-0.4-0.9-0.6-1.4h7.5
				c0.5-1.4,0.7-2.8,0.7-4.3c0-1-0.1-2-0.3-2.9h-8.3c0.1-0.5,0.2-1,0.4-1.4h7.6c-0.2-0.5-0.4-1-0.6-1.5h-6.4c0.2-0.5,0.5-1,0.8-1.4
				h4.8c-0.3-0.5-0.7-1-1.1-1.5h-2.7c0.4-0.5,0.9-0.9,1.4-1.4C21.7,36.3,18.5,34.9,14.9,34.9C14.9,34.9,14.9,34.9,14.9,34.9z"/>
			<path id="use9412" fill="#FCB341" d="M45.5,55.7c0.1,0,0.1,0,0.2,0.1c0.1,0,0.1,0.1,0.2,0.2c0,0.1,0.1,0.1,0.1,0.2
				c0,0.1,0,0.1-0.1,0.2c0,0.1-0.1,0.1-0.2,0.2c-0.1,0-0.1,0.1-0.2,0.1c-0.1,0-0.1,0-0.2-0.1c-0.1,0-0.1-0.1-0.2-0.2
				c0-0.1-0.1-0.1-0.1-0.2c0-0.1,0-0.2,0.1-0.2c0-0.1,0.1-0.1,0.2-0.2C45.4,55.7,45.4,55.7,45.5,55.7 M45.5,55.7c-0.1,0-0.1,0-0.2,0
				c-0.1,0-0.1,0.1-0.1,0.1c0,0.1-0.1,0.1-0.1,0.2c0,0.1,0,0.1,0,0.2c0,0.1,0.1,0.1,0.1,0.1c0.1,0,0.1,0,0.2,0c0.1,0,0.1,0,0.2,0
				c0.1,0,0.1-0.1,0.1-0.1c0-0.1,0-0.1,0-0.2c0-0.1,0-0.1,0-0.2c0-0.1-0.1-0.1-0.1-0.1C45.6,55.8,45.6,55.7,45.5,55.7 M45.3,56.4
				v-0.5h0.2c0.1,0,0.1,0,0.1,0c0,0,0,0,0.1,0c0,0,0,0,0,0.1c0,0,0,0.1,0,0.1c0,0-0.1,0-0.1,0c0,0,0,0,0,0c0,0,0,0,0.1,0.1l0.1,0.1
				h-0.1l0-0.1c0-0.1-0.1-0.1-0.1-0.1c0,0,0,0-0.1,0h0L45.3,56.4L45.3,56.4 M45.4,56.1L45.4,56.1c0.1,0,0.2,0,0.2,0c0,0,0,0,0-0.1
				c0,0,0,0,0,0c0,0,0,0,0,0c0,0,0,0-0.1,0h-0.1L45.4,56.1"/>
		</g>
		<g id="g16480">
			<g id="g13802" transform="translate(-13.74405,15.9939)">
				<path id="path13804" fill="#21205F" d="M33.2,36.5l0.2-1.2c-0.1,0-0.2,0-0.4,0c-0.5,0-0.6-0.3-0.5-0.5l0.5-2.5h0.8l0.2-1.4h-0.7
					l0.1-0.8h-1.5c0,0-0.9,4.8-0.9,5.4c0,0.9,0.5,1.2,1.2,1.2C32.7,36.6,33.1,36.5,33.2,36.5z"/>
				<path id="path13806" fill="#21205F" d="M33.7,34.1c0,2.1,1.4,2.5,2.5,2.5c1.1,0,1.6-0.2,1.6-0.2l0.3-1.4c0,0-0.9,0.4-1.6,0.4
					c-1.6,0-1.3-1.2-1.3-1.2l3,0c0,0,0.2-0.9,0.2-1.3c0-1-0.5-2.1-2.1-2.1C34.8,30.8,33.7,32.3,33.7,34.1z M36.2,32.1
					c0.8,0,0.7,0.9,0.7,1h-1.6C35.3,33,35.4,32.1,36.2,32.1z"/>
				<path id="path13808" fill="#21205F" d="M45.4,36.5l0.3-1.6c0,0-0.7,0.4-1.2,0.4c-1,0-1.4-0.8-1.4-1.6c0-1.7,0.9-2.7,1.9-2.7
					c0.7,0,1.3,0.4,1.3,0.4l0.2-1.5c0,0-0.7-0.5-1.5-0.5c-2.3,0-3.6,1.6-3.6,4.3c0,1.8,1,3,2.7,3C44.6,36.7,45.4,36.5,45.4,36.5z"/>
				<path id="path13810" fill="#21205F" d="M25.2,30.8c-1,0-1.8,0.3-1.8,0.3l-0.2,1.3c0,0,0.6-0.3,1.6-0.3c0.5,0,0.9,0.1,0.9,0.5
					c0,0.3,0,0.4,0,0.4s-0.4,0-0.6,0c-1.4,0-2.6,0.5-2.6,2.2c0,1.3,0.9,1.6,1.4,1.6c1,0,1.4-0.6,1.5-0.6l0,0.5c0,0,1.3,0,1.3,0
					l0.6-4C27.2,30.8,25.7,30.8,25.2,30.8z M25.5,34c0,0.2-0.1,1.4-0.9,1.4c-0.5,0-0.6-0.3-0.6-0.5c0-0.4,0.2-0.9,1.3-0.9
					C25.5,34,25.4,34,25.5,34z"/>
				<path id="path13812" fill="#21205F" d="M28.6,36.6c0.3,0,2.2,0.1,2.2-1.8c0-1.8-1.7-1.4-1.7-2.2c0-0.4,0.3-0.5,0.8-0.5
					c0.2,0,1,0.1,1,0.1l0.2-1.3c0,0-0.5-0.1-1.3-0.1c-1.1,0-2.2,0.4-2.2,1.9c0,1.7,1.8,1.5,1.8,2.2c0,0.5-0.5,0.5-0.9,0.5
					c-0.7,0-1.3-0.2-1.3-0.2L27,36.4C27,36.4,27.4,36.6,28.6,36.6z"/>
				<path id="path13814" fill="#21205F" d="M57.4,29.6l-0.3,2c0,0-0.5-0.8-1.4-0.8c-1.6,0-2.4,1.6-2.4,3.4c0,1.2,0.6,2.4,1.8,2.4
					c0.9,0,1.4-0.6,1.4-0.6l-0.1,0.5h1.4l1.1-6.9L57.4,29.6z M56.8,33.4c0,0.8-0.4,1.8-1.2,1.8c-0.5,0-0.8-0.4-0.8-1.1
					c0-1.1,0.5-1.9,1.1-1.9C56.5,32.2,56.8,32.6,56.8,33.4z"/>
				<path id="path13816" fill="#21205F" d="M17.4,36.5l0.9-5.2l0.1,5.2h1l1.9-5.2l-0.8,5.2h1.5l1.1-6.9l-2.4,0l-1.4,4.2l0-4.2h-2.2
					l-1.2,6.9H17.4L17.4,36.5z"/>
				<path id="path13818" fill="#21205F" d="M39.7,36.5c0.4-2.4,0.6-4.3,1.8-3.9c0.2-0.9,0.6-1.7,0.8-2.1c0,0-0.1-0.1-0.4-0.1
					c-0.7,0-1.5,1.3-1.5,1.3l0.1-0.8h-1.4l-0.9,5.6L39.7,36.5L39.7,36.5z"/>
				<g id="use14699" transform="translate(845.3001,0)">
					<path id="path13810_1_" fill="#21205F" d="M-796.8,30.8c-1,0-1.8,0.3-1.8,0.3l-0.2,1.3c0,0,0.6-0.3,1.6-0.3
						c0.5,0,0.9,0.1,0.9,0.5c0,0.3,0,0.4,0,0.4s-0.4,0-0.6,0c-1.4,0-2.6,0.5-2.6,2.2c0,1.3,0.9,1.6,1.4,1.6c1,0,1.4-0.6,1.5-0.6
						l0,0.5h1.3l0.6-4C-794.8,30.8-796.3,30.8-796.8,30.8z M-796.6,34c0,0.2-0.1,1.4-0.9,1.4c-0.5,0-0.6-0.3-0.6-0.5
						c0-0.4,0.2-0.9,1.3-0.9C-796.6,34-796.7,34-796.6,34z"/>
				</g>
				<path id="use14701" fill="#21205F" d="M51.9,36.5c0.2-1.8,0.7-4.3,1.8-3.9c0.2-0.9,0-0.9-0.4-0.9c-0.7,0-0.8,0-0.8,0l0.1-0.8
					h-1.4l-0.9,5.6L51.9,36.5L51.9,36.5z"/>
			</g>
			<g id="g10289">
				<path id="path4157" fill="#FFFFFF" d="M19.9,52l0.2-1.2c-0.1,0-0.2,0-0.4,0c-0.5,0-0.6-0.3-0.5-0.5l0.4-2.5h0.8l0.2-1.4h-0.7
					l0.1-0.8h-1.5c0,0-0.9,4.8-0.9,5.4c0,0.9,0.5,1.2,1.2,1.2C19.3,52.2,19.7,52.1,19.9,52z"/>
				<path id="path4155" fill="#FFFFFF" d="M20.3,49.7c0,2.1,1.4,2.5,2.5,2.5c1.1,0,1.5-0.2,1.5-0.2l0.3-1.4c0,0-0.8,0.4-1.5,0.4
					c-1.6,0-1.3-1.2-1.3-1.2h3c0,0,0.2-0.9,0.2-1.3c0-1-0.5-2.1-2.1-2.1C21.4,46.3,20.3,47.9,20.3,49.7z M22.9,47.6
					c0.8,0,0.7,0.9,0.7,1h-1.6C21.9,48.5,22.1,47.6,22.9,47.6z"/>
				<path id="path4151" fill="#FFFFFF" d="M32.1,52l0.3-1.6c0,0-0.7,0.4-1.2,0.4c-1,0-1.4-0.8-1.4-1.6c0-1.7,0.9-2.7,1.9-2.7
					c0.7,0,1.3,0.4,1.3,0.4l0.2-1.5c0,0-0.9-0.4-1.6-0.4c-1.7,0-3.3,1.5-3.3,4.2c0,1.8,0.9,3,2.6,3C31.3,52.2,32.1,52,32.1,52z"/>
				<path id="path4149" fill="#FFFFFF" d="M11.9,46.3c-1,0-1.8,0.3-1.8,0.3l-0.2,1.3c0,0,0.6-0.3,1.6-0.3c0.5,0,0.9,0.1,0.9,0.5
					c0,0.3,0,0.4,0,0.4s-0.4,0-0.6,0c-1.3,0-2.6,0.5-2.6,2.2c0,1.3,0.9,1.6,1.4,1.6c1,0,1.5-0.7,1.5-0.7l0,0.6h1.3l0.6-4
					C13.9,46.4,12.4,46.3,11.9,46.3z M12.2,49.6c0,0.2-0.2,1.4-1,1.4c-0.5,0-0.6-0.3-0.6-0.5c0-0.4,0.2-0.9,1.3-0.9
					C12.1,49.6,12.1,49.6,12.2,49.6z"/>
				<path id="path4145" fill="#FFFFFF" d="M15.2,52.2c0.3,0,2.2,0.1,2.2-1.8c0-1.8-1.7-1.4-1.7-2.2c0-0.4,0.3-0.5,0.8-0.5
					c0.2,0,1,0.1,1,0.1l0.2-1.3c0,0-0.5-0.1-1.3-0.1c-1.1,0-2.2,0.4-2.2,1.9c0,1.7,1.8,1.5,1.8,2.2c0,0.5-0.5,0.5-0.9,0.5
					c-0.7,0-1.3-0.2-1.3-0.2L13.6,52C13.6,52,14,52.2,15.2,52.2z"/>
				<path id="path4139" fill="#FFFFFF" d="M44.1,45.2l-0.3,1.9c0,0-0.5-0.8-1.4-0.8c-1.3,0-2.4,1.6-2.4,3.4c0,1.2,0.6,2.4,1.8,2.4
					c0.9,0,1.4-0.6,1.4-0.6L43,52.1h1.4l1.1-6.9L44.1,45.2z M43.4,49c0,0.8-0.4,1.8-1.2,1.8c-0.5,0-0.8-0.4-0.8-1.1
					c0-1.1,0.5-1.9,1.1-1.9C43.1,47.8,43.4,48.1,43.4,49z"/>
				<path id="path4133" fill="#FFFFFF" d="M4,52.1l0.9-5.2L5,52.1h1l1.9-5.2l-0.8,5.2h1.5l1.1-6.9H7.4L6,49.4l-0.1-4.2H3.8l-1.2,6.9
					C2.6,52.1,4,52.1,4,52.1z"/>
				<path id="path4131" fill="#FFFFFF" d="M26.4,52.1c0.4-2.4,0.5-4.4,1.5-4c0.2-0.9,0.3-1.3,0.5-1.7c0,0-0.1,0-0.3,0
					c-0.7,0-1.1,0.9-1.1,0.9l0.1-0.8h-1.4l-0.9,5.6H26.4z"/>
				<g id="use8523" transform="translate(847.0062,0)">
					<path id="path4149_1_" fill="#FFFFFF" d="M-811.6,46.3c-1,0-1.8,0.3-1.8,0.3l-0.2,1.3c0,0,0.6-0.3,1.6-0.3
						c0.5,0,0.9,0.1,0.9,0.5c0,0.3,0,0.4,0,0.4s-0.4,0-0.6,0c-1.3,0-2.6,0.5-2.6,2.2c0,1.3,0.9,1.6,1.4,1.6c1,0,1.5-0.7,1.5-0.7
						l0,0.6c0,0,1.3,0,1.3,0l0.6-4C-809.6,46.4-811.1,46.3-811.6,46.3z M-811.3,49.6c0,0.2-0.2,1.4-1,1.4c-0.5,0-0.6-0.3-0.6-0.5
						c0-0.4,0.2-0.9,1.3-0.9C-811.4,49.6-811.3,49.6-811.3,49.6z"/>
				</g>
				<g id="use8525" transform="translate(442.2857,0)">
					<path id="path4131_1_" fill="#FFFFFF" d="M-403.7,52.1c0.4-2.4,0.5-4.4,1.5-4c0.2-0.9,0.3-1.3,0.5-1.7c0,0-0.1,0-0.3,0
						c-0.7,0-1.1,0.9-1.1,0.9l0.1-0.8h-1.4l-0.9,5.6H-403.7z"/>
				</g>
				<path id="text9407" fill="#FFFFFF" d="M45.5,51.2c0.1,0,0.1,0,0.2,0.1c0.1,0,0.1,0.1,0.2,0.2c0,0.1,0.1,0.1,0.1,0.2
					c0,0.1,0,0.1-0.1,0.2c0,0.1-0.1,0.1-0.2,0.2c-0.1,0-0.1,0.1-0.2,0.1c-0.1,0-0.1,0-0.2-0.1c-0.1,0-0.1-0.1-0.2-0.2
					c0-0.1-0.1-0.1-0.1-0.2c0-0.1,0-0.2,0.1-0.2c0-0.1,0.1-0.1,0.2-0.2C45.4,51.3,45.4,51.2,45.5,51.2 M45.5,51.3
					c-0.1,0-0.1,0-0.2,0c-0.1,0-0.1,0.1-0.1,0.1c0,0.1,0,0.1,0,0.2s0,0.1,0,0.2c0,0.1,0.1,0.1,0.1,0.1c0.1,0,0.1,0,0.2,0
					c0.1,0,0.1,0,0.2,0c0.1,0,0.1-0.1,0.1-0.1c0-0.1,0-0.1,0-0.2s0-0.1,0-0.2c0-0.1-0.1-0.1-0.1-0.1C45.6,51.3,45.6,51.3,45.5,51.3
					 M45.3,51.9v-0.5h0.2c0.1,0,0.1,0,0.1,0c0,0,0,0,0.1,0c0,0,0,0,0,0.1c0,0,0,0.1,0,0.1c0,0-0.1,0-0.1,0c0,0,0,0,0,0
					c0,0,0,0.1,0.1,0.1l0.1,0.1h-0.1l0-0.1c0-0.1-0.1-0.1-0.1-0.1c0,0,0,0-0.1,0h0L45.3,51.9L45.3,51.9 M45.4,51.6L45.4,51.6
					c0.1,0,0.2,0,0.2,0c0,0,0,0,0-0.1c0,0,0,0,0,0c0,0,0,0,0,0c0,0,0,0-0.1,0h-0.1L45.4,51.6"/>
			</g>
		</g>
	</g>
</g>
</svg>