<?xml version="1.0" encoding="utf-8"?>
<!-- Generator: Adobe Illustrator 18.0.0, SVG Export Plug-In . SVG Version: 6.00 Build 0)  -->
<!DOCTYPE svg PUBLIC "-//W3C//DTD SVG 1.1//EN" "http://www.w3.org/Graphics/SVG/1.1/DTD/svg11.dtd">
<svg version="1.1" id="Layer_1" xmlns="http://www.w3.org/2000/svg" xmlns:xlink="http://www.w3.org/1999/xlink" x="0px" y="0px"
	 viewBox="0 0 112 111.9" enable-background="new 0 0 112 111.9" xml:space="preserve">
<path fill="#FFFFFF" d="M94.8-0.1H18.6C8.7-0.1,0,7.1,0,17v76.2c0,9.9,8.7,18.8,18.6,18.8h47.2c-0.1-14.7,0-31-0.1-45.2
	c-3,0-6-0.2-9-0.2c0-5,0-10.1,0-15.2c3,0,6,0,9-0.1c0.1-4.9-0.1-9.8,0.1-14.7c0.3-3.9,1.8-7.8,4.7-10.4c3.5-3.3,8.5-4.5,13.2-4.6
	c5,0,9.9,0,14.9,0c0,5.2,0,10.5,0,15.7c-3.2,0-6.4,0-9.6,0c-2-0.1-4.1,1.4-4.5,3.4c0,3.5,0,7,0,10.5c4.7,0,9.4,0,14.1,0
	c-0.3,5.1-1,10.1-1.7,15.1c-4.2,0-8.3,0.4-12.5,0.4c0,14.2,0,30.6,0,45.2h10.5c9.9,0,17.2-8.9,17.2-18.8V17
	C112,7.1,104.7-0.1,94.8-0.1z"/>
</svg>
