<svg version="1.1" id="Layer_1" xmlns="http://www.w3.org/2000/svg" xmlns:xlink="http://www.w3.org/1999/xlink" x="0px" y="0px"
	 viewBox="0 0 112 111.5" enable-background="new 0 0 112 111.5" xml:space="preserve">
                    <g>
                        <path fill="#999999"
                              d="M56,27.4c-15.8,0-28.5,12.8-28.5,28.5S40.2,84.5,56,84.5s28.5-12.8,28.5-28.5S71.8,27.4,56,27.4z M56,70.4
                              c-8,0-14.5-6.5-14.5-14.5S48,41.4,56,41.4s14.5,6.5,14.5,14.5S64,70.4,56,70.4z"/>
                        <path fill="#999999"
                              d="M56-0.1c-15.5,0-56,0-56,0s0,40.5,0,56c0,30.9,25.1,56,56,56s56-25.1,56-56S86.9-0.1,56-0.1z M56,94.6
                              c-21.4,0-38.7-17.3-38.7-38.7c0-21.4,17.3-38.7,38.7-38.7s38.7,17.3,38.7,38.7C94.7,77.3,77.4,94.6,56,94.6z"/>
                    </g>
                </svg>